<mxfile host="Electron" modified="2024-07-05T09:39:21.626Z" agent="Mozilla/5.0 (Windows NT 10.0; Win64; x64) AppleWebKit/537.36 (KHTML, like Gecko) draw.io/24.6.4 Chrome/124.0.6367.207 Electron/30.0.6 Safari/537.36" etag="rdpwoIockBg-hNMUB20A" scale="1" border="0" version="24.6.4" type="device">
  <diagram name="Página-1" id="WA5mY4TyFw6MFZpWMhkz">
    <mxGraphModel dx="7505" dy="-268" grid="1" gridSize="10" guides="1" tooltips="1" connect="1" arrows="1" fold="1" page="1" pageScale="1" pageWidth="827" pageHeight="1169" background="#FFFFFF" math="0" shadow="0">
      <root>
        <mxCell id="0" />
        <mxCell id="1" parent="0" />
        <mxCell id="UCbZr8MR9aldIv35tVW8-13" value="" style="curved=1;endArrow=none;html=1;rounded=0;strokeWidth=14;strokeColor=#3399FF;endFill=0;" parent="1" edge="1">
          <mxGeometry width="50" height="50" relative="1" as="geometry">
            <mxPoint x="-6350" y="4380" as="sourcePoint" />
            <mxPoint x="-4830" y="2250" as="targetPoint" />
            <Array as="points">
              <mxPoint x="-5000" y="4050" />
              <mxPoint x="-5430" y="3640" />
              <mxPoint x="-4630" y="3220" />
            </Array>
          </mxGeometry>
        </mxCell>
        <mxCell id="GH2AgFXG34YJStF--hEa-35" value="&lt;font size=&quot;1&quot; color=&quot;#00cc00&quot;&gt;&lt;b style=&quot;font-size: 30px;&quot;&gt;EMERGÈNCIA&lt;/b&gt;&lt;/font&gt;" style="rounded=0;whiteSpace=wrap;html=1;dashed=1;strokeWidth=4;strokeColor=#00CC00;labelPosition=center;verticalLabelPosition=top;align=center;verticalAlign=bottom;fontSize=22;" parent="1" vertex="1">
          <mxGeometry x="-2770" y="3650" width="400" height="100" as="geometry" />
        </mxCell>
        <mxCell id="GH2AgFXG34YJStF--hEa-25" value="&lt;font size=&quot;1&quot; color=&quot;#00cc00&quot;&gt;&lt;b style=&quot;font-size: 30px;&quot;&gt;EMERGÈNCIA&lt;/b&gt;&lt;/font&gt;" style="rounded=0;whiteSpace=wrap;html=1;dashed=1;strokeWidth=4;strokeColor=#00CC00;labelPosition=center;verticalLabelPosition=bottom;align=center;verticalAlign=top;fontSize=22;" parent="1" vertex="1">
          <mxGeometry x="-2195" y="3220" width="370" height="150" as="geometry" />
        </mxCell>
        <object label="&lt;font style=&quot;font-size: 25px;&quot;&gt;Cabal:&lt;/font&gt;" id="c_sallent">
          <mxCell style="edgeStyle=orthogonalEdgeStyle;rounded=0;orthogonalLoop=1;jettySize=auto;html=1;shape=link;strokeWidth=2;" parent="1" target="etap_bagesllobregat_1" edge="1">
            <mxGeometry x="-0.0029" relative="1" as="geometry">
              <mxPoint x="-6280" y="2870" as="sourcePoint" />
              <mxPoint as="offset" />
            </mxGeometry>
          </mxCell>
        </object>
        <object label="&lt;font style=&quot;font-size: 30px;&quot;&gt;Sallent&lt;/font&gt;" tooltip="" link="http://10.8.17.54:1881/home" linkTarget="_blank" id="sallent">
          <mxCell style="shape=mxgraph.pid.vessels.tank,_vessel;html=1;pointerEvents=1;align=center;verticalLabelPosition=top;verticalAlign=bottom;dashed=0;strokeWidth=5;fillColor=none;shadow=0;labelBackgroundColor=none;labelPosition=center;fontStyle=1" parent="1" vertex="1">
            <mxGeometry x="-6330" y="2690" width="100" height="70" as="geometry" />
          </mxCell>
        </object>
        <mxCell id="GH2AgFXG34YJStF--hEa-9" style="rounded=0;orthogonalLoop=1;jettySize=auto;html=1;exitX=0.5;exitY=1;exitDx=0;exitDy=0;entryX=1;entryY=0.25;entryDx=0;entryDy=0;shape=link;" parent="1" source="gSodDeEQz3PpbHxBmHn0-25" edge="1">
          <mxGeometry relative="1" as="geometry">
            <mxPoint x="-5600" y="3147.5" as="targetPoint" />
          </mxGeometry>
        </mxCell>
        <mxCell id="gSodDeEQz3PpbHxBmHn0-25" value="" style="rounded=0;whiteSpace=wrap;html=1;rotation=-90;strokeWidth=1;" parent="1" vertex="1">
          <mxGeometry x="-5950" y="3211.25" width="155" height="127.5" as="geometry" />
        </mxCell>
        <UserObject label="" link="https://www.aiguesmanresa.cat/" id="gSodDeEQz3PpbHxBmHn0-26">
          <mxCell style="verticalLabelPosition=bottom;align=center;html=1;verticalAlign=top;pointerEvents=1;dashed=0;shape=mxgraph.pid2valves.valve;valveType=gate;rotation=-90;strokeWidth=7;" parent="1" vertex="1">
            <mxGeometry x="-5927.862129120879" y="3228.435" width="110.7142857142857" height="95.625" as="geometry" />
          </mxCell>
        </UserObject>
        <object label="&lt;span style=&quot;font-size: 30px;&quot;&gt;&lt;font style=&quot;font-size: 30px;&quot;&gt;Aigua Crua1&lt;/font&gt;&lt;/span&gt;" link="http://iot.aiguesmanresa.com:3000/d/cdn5bojpjgjy8e/c-sant-antoni-santa-maria-olo?orgId=1&amp;from=1716076800000&amp;to=1719730800000" id="d_aigua_crua1">
          <mxCell style="shape=mxgraph.pid.vessels.tank,_vessel;html=1;pointerEvents=1;align=left;verticalLabelPosition=top;verticalAlign=top;dashed=0;strokeWidth=5;labelPosition=left;fontSize=30;fontStyle=1" parent="1" vertex="1">
            <mxGeometry x="-5600" y="3110" width="110" height="70" as="geometry" />
          </mxCell>
        </object>
        <mxCell id="gSodDeEQz3PpbHxBmHn0-28" style="edgeStyle=orthogonalEdgeStyle;shape=link;rounded=0;orthogonalLoop=1;jettySize=auto;html=1;entryX=0;entryY=0.5;entryDx=0;entryDy=0;" parent="1" source="d_aigua_crua_2" target="gSodDeEQz3PpbHxBmHn0-35" edge="1">
          <mxGeometry relative="1" as="geometry" />
        </mxCell>
        <object label="&lt;font style=&quot;font-size: 30px;&quot;&gt;Aigua Crua2&lt;/font&gt;" link="http://10.8.17.56:1881/" id="d_aigua_crua_2">
          <mxCell style="shape=mxgraph.pid.vessels.tank,_vessel;html=1;pointerEvents=1;align=right;verticalLabelPosition=top;verticalAlign=top;dashed=0;strokeWidth=5;labelPosition=right;fontStyle=1;fontSize=30;" parent="1" vertex="1">
            <mxGeometry x="-5493" y="3110" width="100" height="70" as="geometry" />
          </mxCell>
        </object>
        <mxCell id="gSodDeEQz3PpbHxBmHn0-30" style="edgeStyle=orthogonalEdgeStyle;rounded=0;orthogonalLoop=1;jettySize=auto;html=1;shape=link;" parent="1" source="etap_bagesllobregat_1" target="etap_bagesllobregat_2" edge="1">
          <mxGeometry relative="1" as="geometry" />
        </mxCell>
        <object label="Cabal:" id="c_bl_cabrianes">
          <mxCell style="edgeStyle=none;shape=link;rounded=0;orthogonalLoop=1;jettySize=auto;html=1;elbow=vertical;fontSize=30;" parent="1" edge="1">
            <mxGeometry relative="1" as="geometry">
              <Array as="points">
                <mxPoint x="-6480" y="3280" />
                <mxPoint x="-6480" y="3580" />
              </Array>
              <mxPoint x="-6330" y="3280" as="sourcePoint" />
              <mxPoint x="-4950" y="3580" as="targetPoint" />
            </mxGeometry>
          </mxCell>
        </object>
        <object label="&lt;font style=&quot;font-size: 30px;&quot;&gt;Etap B-L 1&lt;/font&gt;" link="http://iot.aiguesmanresa.com:3000/d/fca8985f-d3aa-46d7-8357-9b98f716f224/2-marganell-diposit-de-can-prat?orgId=1&amp;refresh=5s" id="etap_bagesllobregat_1">
          <mxCell style="shape=mxgraph.pid.vessels.tank,_vessel;html=1;pointerEvents=1;align=center;verticalLabelPosition=top;verticalAlign=bottom;dashed=0;strokeWidth=5;fillColor=none;labelPosition=center;fontStyle=1" parent="1" vertex="1">
            <mxGeometry x="-6330" y="3240" width="100" height="70" as="geometry" />
          </mxCell>
        </object>
        <mxCell id="gSodDeEQz3PpbHxBmHn0-33" style="edgeStyle=orthogonalEdgeStyle;shape=link;rounded=0;orthogonalLoop=1;jettySize=auto;html=1;entryX=0.5;entryY=0;entryDx=0;entryDy=0;" parent="1" source="etap_bagesllobregat_2" target="gSodDeEQz3PpbHxBmHn0-25" edge="1">
          <mxGeometry relative="1" as="geometry" />
        </mxCell>
        <object label="&lt;font style=&quot;font-size: 30px;&quot;&gt;Etap B-L 2&lt;/font&gt;" link="http://iot.aiguesmanresa.com:3000/d/edn1vgu8qubk0a/1-resums?orgId=1" id="etap_bagesllobregat_2">
          <mxCell style="shape=mxgraph.pid.vessels.tank,_vessel;html=1;pointerEvents=1;align=center;verticalLabelPosition=top;verticalAlign=bottom;dashed=0;strokeWidth=5;fillColor=none;labelPosition=center;fontStyle=1" parent="1" vertex="1">
            <mxGeometry x="-6130" y="3240" width="100" height="70" as="geometry" />
          </mxCell>
        </object>
        <mxCell id="gSodDeEQz3PpbHxBmHn0-35" value="" style="rounded=0;whiteSpace=wrap;html=1;" parent="1" vertex="1">
          <mxGeometry x="-5310" y="3340" width="110" height="100" as="geometry" />
        </mxCell>
        <object label="" id="bombament_aigua_crua">
          <mxCell style="triangle;whiteSpace=wrap;html=1;strokeWidth=7;rotation=-180;" parent="1" vertex="1">
            <mxGeometry x="-5295" y="3345" width="87.5" height="90" as="geometry" />
          </mxCell>
        </object>
        <mxCell id="gSodDeEQz3PpbHxBmHn0-37" value="" style="rounded=0;whiteSpace=wrap;html=1;" parent="1" vertex="1">
          <mxGeometry x="-5200" y="3340" width="120" height="100" as="geometry" />
        </mxCell>
        <mxCell id="UCbZr8MR9aldIv35tVW8-14" style="edgeStyle=orthogonalEdgeStyle;rounded=0;orthogonalLoop=1;jettySize=auto;html=1;shape=link;width=20;strokeWidth=2;" parent="1" edge="1">
          <mxGeometry relative="1" as="geometry">
            <mxPoint x="-4980" y="3389.44" as="targetPoint" />
            <mxPoint x="-5100" y="3389.44" as="sourcePoint" />
            <Array as="points">
              <mxPoint x="-5010" y="3390" />
              <mxPoint x="-5010" y="3390" />
            </Array>
          </mxGeometry>
        </mxCell>
        <object label="" id="arqueta_aigua_crua">
          <mxCell style="ellipse;whiteSpace=wrap;html=1;aspect=fixed;strokeWidth=7;" parent="1" vertex="1">
            <mxGeometry x="-5180" y="3349" width="80" height="80" as="geometry" />
          </mxCell>
        </object>
        <mxCell id="gSodDeEQz3PpbHxBmHn0-40" style="edgeStyle=none;rounded=0;orthogonalLoop=1;jettySize=auto;html=1;exitX=0;exitY=0.5;exitDx=0;exitDy=0;elbow=vertical;entryX=0.5;entryY=1.143;entryDx=0;entryDy=0;entryPerimeter=0;dashed=1;strokeWidth=6;" parent="1" source="gSodDeEQz3PpbHxBmHn0-25" target="etap_bagesllobregat_1" edge="1">
          <mxGeometry relative="1" as="geometry">
            <Array as="points">
              <mxPoint x="-5872" y="3440" />
              <mxPoint x="-6280" y="3440" />
            </Array>
            <mxPoint x="-6300" y="3410" as="targetPoint" />
          </mxGeometry>
        </mxCell>
        <mxCell id="gSodDeEQz3PpbHxBmHn0-41" style="edgeStyle=none;shape=link;rounded=0;orthogonalLoop=1;jettySize=auto;html=1;elbow=vertical;" parent="1" source="d_cabrianes" edge="1">
          <mxGeometry relative="1" as="geometry">
            <mxPoint x="-4500" y="3660" as="targetPoint" />
          </mxGeometry>
        </mxCell>
        <object label="&lt;font style=&quot;font-size: 30px;&quot;&gt;Dipòsit Cabrianes&lt;/font&gt;" id="d_cabrianes">
          <mxCell style="shape=mxgraph.pid.vessels.tank,_vessel;html=1;pointerEvents=1;align=center;verticalLabelPosition=top;verticalAlign=bottom;dashed=0;strokeWidth=5;labelPosition=center;fontSize=30;fontStyle=1" parent="1" vertex="1">
            <mxGeometry x="-4950" y="3540" width="100" height="70" as="geometry" />
          </mxCell>
        </object>
        <mxCell id="gSodDeEQz3PpbHxBmHn0-43" value="" style="rounded=0;whiteSpace=wrap;html=1;" parent="1" vertex="1">
          <mxGeometry x="-4300" y="3550" width="110" height="100" as="geometry" />
        </mxCell>
        <object label="" id="b_cabrianes1">
          <mxCell style="triangle;whiteSpace=wrap;html=1;strokeWidth=7;rotation=0;" parent="1" vertex="1">
            <mxGeometry x="-4285" y="3555" width="87.5" height="90" as="geometry" />
          </mxCell>
        </object>
        <mxCell id="gSodDeEQz3PpbHxBmHn0-45" style="edgeStyle=none;shape=link;rounded=0;orthogonalLoop=1;jettySize=auto;html=1;elbow=vertical;entryX=0;entryY=0.5;entryDx=0;entryDy=0;" parent="1" source="gSodDeEQz3PpbHxBmHn0-46" target="gSodDeEQz3PpbHxBmHn0-43" edge="1">
          <mxGeometry relative="1" as="geometry">
            <mxPoint x="-4500" y="3560" as="targetPoint" />
            <Array as="points">
              <mxPoint x="-4500" y="3720" />
              <mxPoint x="-4500" y="3600" />
            </Array>
          </mxGeometry>
        </mxCell>
        <mxCell id="gSodDeEQz3PpbHxBmHn0-46" value="" style="rounded=0;whiteSpace=wrap;html=1;" parent="1" vertex="1">
          <mxGeometry x="-4300" y="3670" width="110" height="100" as="geometry" />
        </mxCell>
        <mxCell id="gSodDeEQz3PpbHxBmHn0-47" style="edgeStyle=none;shape=link;rounded=0;orthogonalLoop=1;jettySize=auto;html=1;elbow=vertical;" parent="1" source="b_cabrianes_2" target="d_paloma" edge="1">
          <mxGeometry relative="1" as="geometry" />
        </mxCell>
        <object label="" id="b_cabrianes_2">
          <mxCell style="triangle;whiteSpace=wrap;html=1;strokeWidth=7;rotation=0;" parent="1" vertex="1">
            <mxGeometry x="-4285" y="3675" width="87.5" height="90" as="geometry" />
          </mxCell>
        </object>
        <mxCell id="gSodDeEQz3PpbHxBmHn0-49" style="edgeStyle=none;shape=link;rounded=0;orthogonalLoop=1;jettySize=auto;html=1;elbow=vertical;" parent="1" source="d_soler" edge="1">
          <mxGeometry relative="1" as="geometry">
            <mxPoint x="-4145" y="2895" as="targetPoint" />
          </mxGeometry>
        </mxCell>
        <object label="&lt;font style=&quot;font-size: 30px;&quot;&gt;Dipòsit PI el Soler&lt;/font&gt;" id="d_soler">
          <mxCell style="shape=mxgraph.pid.vessels.tank,_vessel;html=1;pointerEvents=1;align=center;verticalLabelPosition=top;verticalAlign=bottom;dashed=0;strokeWidth=5;labelPosition=center;fontSize=30;fontStyle=1" parent="1" vertex="1">
            <mxGeometry x="-4385" y="2860" width="100" height="70" as="geometry" />
          </mxCell>
        </object>
        <object label="&lt;font style=&quot;font-size: 30px;&quot;&gt;Dipòsit de Turic 2&lt;/font&gt;" id="d_turic2">
          <mxCell style="shape=mxgraph.pid.vessels.tank,_vessel;html=1;pointerEvents=1;align=center;verticalLabelPosition=top;verticalAlign=bottom;dashed=0;strokeWidth=5;rotation=0;labelPosition=center;fontStyle=1;fontSize=30;" parent="1" vertex="1">
            <mxGeometry x="-3940" y="2610" width="100" height="60" as="geometry" />
          </mxCell>
        </object>
        <mxCell id="gSodDeEQz3PpbHxBmHn0-52" style="edgeStyle=none;shape=link;rounded=0;orthogonalLoop=1;jettySize=auto;html=1;elbow=vertical;" parent="1" source="gSodDeEQz3PpbHxBmHn0-91" edge="1">
          <mxGeometry relative="1" as="geometry">
            <mxPoint x="-4145" y="2895" as="targetPoint" />
          </mxGeometry>
        </mxCell>
        <object label="&lt;font style=&quot;font-size: 30px;&quot;&gt;Dipòsit Horta d&#39;Avinyó&lt;/font&gt;" id="d_horta_avinyo">
          <mxCell style="shape=mxgraph.pid.vessels.tank,_vessel;html=1;pointerEvents=1;align=center;verticalLabelPosition=top;verticalAlign=bottom;dashed=0;strokeWidth=5;labelPosition=center;fontStyle=1;fontSize=30;" parent="1" vertex="1">
            <mxGeometry x="-3760" y="2990" width="100" height="70" as="geometry" />
          </mxCell>
        </object>
        <mxCell id="gSodDeEQz3PpbHxBmHn0-54" style="edgeStyle=none;shape=link;rounded=0;orthogonalLoop=1;jettySize=auto;html=1;entryX=0;entryY=0.5;entryDx=0;entryDy=0;elbow=vertical;" parent="1" source="d_paloma" target="b_paloma" edge="1">
          <mxGeometry relative="1" as="geometry" />
        </mxCell>
        <object label="&lt;font style=&quot;font-size: 20px;&quot;&gt;.&lt;/font&gt;" id="d_paloma">
          <mxCell style="shape=mxgraph.pid.vessels.tank,_vessel;html=1;pointerEvents=1;align=center;verticalLabelPosition=top;verticalAlign=bottom;dashed=0;strokeWidth=5;labelPosition=center;fontStyle=1" parent="1" vertex="1">
            <mxGeometry x="-3547.19" y="3678" width="100" height="70" as="geometry" />
          </mxCell>
        </object>
        <mxCell id="gSodDeEQz3PpbHxBmHn0-56" style="edgeStyle=none;rounded=0;orthogonalLoop=1;jettySize=auto;html=1;elbow=vertical;strokeWidth=5;startArrow=classic;startFill=1;endArrow=none;endFill=0;entryX=0.5;entryY=1;entryDx=0;entryDy=0;jumpStyle=arc;" parent="1" source="d_can_vila" target="gSodDeEQz3PpbHxBmHn0-96" edge="1">
          <mxGeometry relative="1" as="geometry">
            <mxPoint x="-3360" y="3940" as="targetPoint" />
            <Array as="points">
              <mxPoint x="-3650" y="3920" />
              <mxPoint x="-3350" y="3920" />
            </Array>
          </mxGeometry>
        </mxCell>
        <object label="&lt;font style=&quot;font-size: 30px;&quot;&gt;Dipòsit de Can Vila&lt;/font&gt;" id="d_can_vila">
          <mxCell style="shape=mxgraph.pid.vessels.tank,_vessel;html=1;pointerEvents=1;align=center;verticalLabelPosition=top;verticalAlign=bottom;dashed=0;strokeWidth=5;labelPosition=center;fontStyle=1;fontSize=30;" parent="1" vertex="1">
            <mxGeometry x="-3700" y="3354" width="100" height="70" as="geometry" />
          </mxCell>
        </object>
        <object label="&lt;font style=&quot;font-size: 30px;&quot;&gt;Dipòsit Pirineu Bll&lt;/font&gt;" id="d_pirineu">
          <mxCell style="shape=mxgraph.pid.vessels.tank,_vessel;html=1;pointerEvents=1;align=center;verticalLabelPosition=top;verticalAlign=bottom;dashed=0;strokeWidth=5;fontSize=30;labelPosition=center;fontStyle=1" parent="1" vertex="1">
            <mxGeometry x="-2990" y="3450" width="100" height="70" as="geometry" />
          </mxCell>
        </object>
        <mxCell id="gSodDeEQz3PpbHxBmHn0-59" style="edgeStyle=none;shape=link;rounded=0;orthogonalLoop=1;jettySize=auto;html=1;elbow=vertical;exitX=1.047;exitY=0.626;exitDx=0;exitDy=0;exitPerimeter=0;" parent="1" edge="1">
          <mxGeometry relative="1" as="geometry">
            <mxPoint x="-3110" y="3220" as="targetPoint" />
            <mxPoint x="-2871.1800000000003" y="2970.3" as="sourcePoint" />
            <Array as="points">
              <mxPoint x="-2871" y="2940" />
              <mxPoint x="-3010" y="2940" />
              <mxPoint x="-3110" y="2940" />
              <mxPoint x="-3110" y="3025" />
            </Array>
          </mxGeometry>
        </mxCell>
        <mxCell id="gSodDeEQz3PpbHxBmHn0-61" style="edgeStyle=none;shape=link;rounded=0;orthogonalLoop=1;jettySize=auto;html=1;exitX=1;exitY=0.5;exitDx=0;exitDy=0;elbow=vertical;entryX=-0.048;entryY=0.482;entryDx=0;entryDy=0;entryPerimeter=0;" parent="1" source="gSodDeEQz3PpbHxBmHn0-62" target="d_pirineu" edge="1">
          <mxGeometry relative="1" as="geometry">
            <mxPoint x="-3110" y="3500" as="targetPoint" />
            <Array as="points">
              <mxPoint x="-3110" y="3670" />
              <mxPoint x="-3110" y="3484" />
            </Array>
          </mxGeometry>
        </mxCell>
        <mxCell id="gSodDeEQz3PpbHxBmHn0-62" value="" style="rounded=0;whiteSpace=wrap;html=1;" parent="1" vertex="1">
          <mxGeometry x="-3308" y="3670" width="100" height="90" as="geometry" />
        </mxCell>
        <object label="" id="b_paloma">
          <mxCell style="triangle;whiteSpace=wrap;html=1;strokeWidth=7;rotation=0;" parent="1" vertex="1">
            <mxGeometry x="-3294.87" y="3678" width="73.75" height="70" as="geometry" />
          </mxCell>
        </object>
        <mxCell id="gSodDeEQz3PpbHxBmHn0-64" value="" style="rounded=0;whiteSpace=wrap;html=1;" parent="1" vertex="1">
          <mxGeometry x="-2880" y="3449" width="100" height="80" as="geometry" />
        </mxCell>
        <object label="" id="b_pirineu">
          <mxCell style="triangle;whiteSpace=wrap;html=1;strokeWidth=7;rotation=0;" parent="1" vertex="1">
            <mxGeometry x="-2866.87" y="3459" width="73.75" height="60" as="geometry" />
          </mxCell>
        </object>
        <mxCell id="gSodDeEQz3PpbHxBmHn0-66" style="edgeStyle=none;shape=link;rounded=0;orthogonalLoop=1;jettySize=auto;html=1;elbow=vertical;" parent="1" source="gSodDeEQz3PpbHxBmHn0-98" edge="1">
          <mxGeometry relative="1" as="geometry">
            <mxPoint x="-3110" y="3490" as="targetPoint" />
            <Array as="points" />
          </mxGeometry>
        </mxCell>
        <mxCell id="gSodDeEQz3PpbHxBmHn0-67" style="edgeStyle=none;shape=link;rounded=0;orthogonalLoop=1;jettySize=auto;html=1;elbow=vertical;entryX=0.48;entryY=0.979;entryDx=0;entryDy=0;entryPerimeter=0;" parent="1" source="d_vista_pirineu1" edge="1">
          <mxGeometry relative="1" as="geometry">
            <mxPoint x="-2846.4700000000003" y="3027" as="targetPoint" />
            <Array as="points">
              <mxPoint x="-2790" y="3215" />
              <mxPoint x="-2790" y="3027" />
            </Array>
          </mxGeometry>
        </mxCell>
        <object label="." id="d_vista_pirineu1">
          <mxCell style="shape=mxgraph.pid.vessels.tank,_vessel;html=1;pointerEvents=1;align=center;verticalLabelPosition=top;verticalAlign=bottom;dashed=0;strokeWidth=5;fontSize=30;labelPosition=center;" parent="1" vertex="1">
            <mxGeometry x="-3050" y="3180" width="100" height="70" as="geometry" />
          </mxCell>
        </object>
        <mxCell id="gSodDeEQz3PpbHxBmHn0-69" style="edgeStyle=none;shape=link;rounded=0;orthogonalLoop=1;jettySize=auto;html=1;entryX=1;entryY=0.5;entryDx=0;entryDy=0;elbow=vertical;strokeWidth=2;" parent="1" source="d_grau_elevat" target="gSodDeEQz3PpbHxBmHn0-77" edge="1">
          <mxGeometry relative="1" as="geometry">
            <Array as="points">
              <mxPoint x="-2335" y="2875" />
            </Array>
          </mxGeometry>
        </mxCell>
        <mxCell id="gSodDeEQz3PpbHxBmHn0-70" style="edgeStyle=none;rounded=0;orthogonalLoop=1;jettySize=auto;html=1;elbow=vertical;fontSize=21;strokeWidth=4;dashed=1;jumpStyle=arc;jumpSize=9;" parent="1" source="d_grau_elevat" edge="1">
          <mxGeometry relative="1" as="geometry">
            <mxPoint x="-2255" y="3580" as="targetPoint" />
            <Array as="points">
              <mxPoint x="-2515" y="3580" />
            </Array>
          </mxGeometry>
        </mxCell>
        <object label="&lt;font style=&quot;font-size: 30px;&quot;&gt;Dipòsits del Grau Elevat&amp;nbsp;&lt;/font&gt;" id="d_grau_elevat">
          <mxCell style="shape=mxgraph.pid.vessels.tank,_vessel;html=1;pointerEvents=1;align=center;verticalLabelPosition=top;verticalAlign=bottom;dashed=0;strokeWidth=5;labelPosition=center;fontStyle=1" parent="1" vertex="1">
            <mxGeometry x="-2565" y="2840" width="100" height="70" as="geometry" />
          </mxCell>
        </object>
        <mxCell id="gSodDeEQz3PpbHxBmHn0-72" style="edgeStyle=none;shape=flexArrow;rounded=0;orthogonalLoop=1;jettySize=auto;html=1;elbow=vertical;strokeWidth=2;" parent="1" source="d_grau" edge="1">
          <mxGeometry relative="1" as="geometry">
            <mxPoint x="-2255" y="4050" as="targetPoint" />
          </mxGeometry>
        </mxCell>
        <mxCell id="gSodDeEQz3PpbHxBmHn0-74" style="edgeStyle=none;rounded=0;orthogonalLoop=1;jettySize=auto;html=1;elbow=vertical;shape=link;strokeWidth=1;" parent="1" source="d_grau" edge="1">
          <mxGeometry relative="1" as="geometry">
            <mxPoint x="-1835" y="3060" as="targetPoint" />
            <Array as="points">
              <mxPoint x="-2255" y="3060" />
            </Array>
          </mxGeometry>
        </mxCell>
        <mxCell id="GH2AgFXG34YJStF--hEa-20" style="edgeStyle=orthogonalEdgeStyle;rounded=0;orthogonalLoop=1;jettySize=auto;html=1;entryX=0;entryY=0.5;entryDx=0;entryDy=0;strokeWidth=3;dashed=1;" parent="1" source="d_grau" target="gSodDeEQz3PpbHxBmHn0-80" edge="1">
          <mxGeometry relative="1" as="geometry">
            <Array as="points">
              <mxPoint x="-2215" y="3290" />
            </Array>
          </mxGeometry>
        </mxCell>
        <object label="" id="aslafasfasd">
          <mxCell style="group;rotation=-90;" parent="1" vertex="1" connectable="0">
            <mxGeometry x="-2385" y="2930" width="100" height="80" as="geometry" />
          </mxCell>
        </object>
        <mxCell id="gSodDeEQz3PpbHxBmHn0-77" value="" style="rounded=0;whiteSpace=wrap;html=1;rotation=-90;" parent="aslafasfasd" vertex="1">
          <mxGeometry width="100" height="80" as="geometry" />
        </mxCell>
        <object label="" id="b_grau_elevat">
          <mxCell style="triangle;whiteSpace=wrap;html=1;strokeWidth=7;rotation=-90;" parent="aslafasfasd" vertex="1">
            <mxGeometry x="13" y="10" width="73.75" height="60" as="geometry" />
          </mxCell>
        </object>
        <object label="&lt;font style=&quot;font-size: 30px;&quot;&gt;Dipòsit del Grau&lt;/font&gt;" id="d_grau">
          <mxCell style="shape=mxgraph.pid.vessels.tank,_vessel;html=1;pointerEvents=1;align=center;verticalLabelPosition=top;verticalAlign=bottom;dashed=0;strokeWidth=5;labelPosition=center;fontSize=18;fontStyle=1" parent="1" vertex="1">
            <mxGeometry x="-2305" y="3120" width="100" height="70" as="geometry" />
          </mxCell>
        </object>
        <mxCell id="gSodDeEQz3PpbHxBmHn0-79" value="" style="group;rotation=0;" parent="1" vertex="1" connectable="0">
          <mxGeometry x="-2145" y="3250" width="100" height="80" as="geometry" />
        </mxCell>
        <mxCell id="ZxImg-H6W7zN_j0aoQGk-6" style="edgeStyle=orthogonalEdgeStyle;rounded=0;orthogonalLoop=1;jettySize=auto;html=1;exitX=1;exitY=0.5;exitDx=0;exitDy=0;dashed=1;strokeWidth=3;" parent="gSodDeEQz3PpbHxBmHn0-79" source="gSodDeEQz3PpbHxBmHn0-80" edge="1">
          <mxGeometry relative="1" as="geometry">
            <mxPoint x="125" y="-90" as="targetPoint" />
            <Array as="points">
              <mxPoint x="126" y="40" />
              <mxPoint x="126" y="-90" />
            </Array>
          </mxGeometry>
        </mxCell>
        <mxCell id="gSodDeEQz3PpbHxBmHn0-80" value="" style="rounded=0;whiteSpace=wrap;html=1;rotation=0;" parent="gSodDeEQz3PpbHxBmHn0-79" vertex="1">
          <mxGeometry width="100" height="80" as="geometry" />
        </mxCell>
        <object label="" id="b_grau_emergencia">
          <mxCell style="triangle;whiteSpace=wrap;html=1;strokeWidth=7;rotation=0;" parent="gSodDeEQz3PpbHxBmHn0-79" vertex="1">
            <mxGeometry x="13" y="10" width="73.75" height="60" as="geometry" />
          </mxCell>
        </object>
        <mxCell id="gSodDeEQz3PpbHxBmHn0-82" style="edgeStyle=none;shape=link;rounded=0;orthogonalLoop=1;jettySize=auto;html=1;exitX=0;exitY=0.5;exitDx=0;exitDy=0;elbow=vertical;entryX=0.025;entryY=0.583;entryDx=0;entryDy=0;entryPerimeter=0;strokeWidth=2;" parent="1" source="gSodDeEQz3PpbHxBmHn0-77" target="d_grau" edge="1">
          <mxGeometry relative="1" as="geometry">
            <mxPoint x="-2335.636363636364" y="3160" as="targetPoint" />
            <Array as="points">
              <mxPoint x="-2335" y="3161" />
            </Array>
          </mxGeometry>
        </mxCell>
        <mxCell id="gSodDeEQz3PpbHxBmHn0-85" value="" style="edgeStyle=orthogonalEdgeStyle;rounded=0;orthogonalLoop=1;jettySize=auto;html=1;shape=link;" parent="1" source="sallent" edge="1">
          <mxGeometry relative="1" as="geometry">
            <mxPoint x="-6280" y="2760" as="sourcePoint" />
            <mxPoint x="-6280" y="2830" as="targetPoint" />
          </mxGeometry>
        </mxCell>
        <mxCell id="gSodDeEQz3PpbHxBmHn0-86" value="&lt;font style=&quot;font-size: 46px;&quot;&gt;X&lt;/font&gt;" style="ellipse;whiteSpace=wrap;html=1;aspect=fixed;fontSize=46;fillColor=#66B2FF;" parent="1" vertex="1">
          <mxGeometry x="-6300" y="2830" width="40" height="40" as="geometry" />
        </mxCell>
        <mxCell id="gSodDeEQz3PpbHxBmHn0-87" style="edgeStyle=none;rounded=0;orthogonalLoop=1;jettySize=auto;html=1;exitX=0.5;exitY=1;exitDx=0;exitDy=0;entryX=1;entryY=0.5;entryDx=0;entryDy=0;elbow=vertical;shape=link;" parent="1" source="gSodDeEQz3PpbHxBmHn0-89" target="gSodDeEQz3PpbHxBmHn0-43" edge="1">
          <mxGeometry relative="1" as="geometry">
            <Array as="points">
              <mxPoint x="-3990" y="3600" />
            </Array>
          </mxGeometry>
        </mxCell>
        <mxCell id="GH2AgFXG34YJStF--hEa-43" style="rounded=0;orthogonalLoop=1;jettySize=auto;html=1;exitX=0.5;exitY=0;exitDx=0;exitDy=0;entryX=0.708;entryY=-0.093;entryDx=0;entryDy=0;entryPerimeter=0;shape=link;" parent="1" source="gSodDeEQz3PpbHxBmHn0-89" target="d_turic2" edge="1">
          <mxGeometry relative="1" as="geometry">
            <mxPoint x="-3910" y="2510" as="targetPoint" />
            <Array as="points">
              <mxPoint x="-3990" y="2570" />
              <mxPoint x="-3930" y="2570" />
              <mxPoint x="-3869" y="2570" />
            </Array>
          </mxGeometry>
        </mxCell>
        <mxCell id="gSodDeEQz3PpbHxBmHn0-89" value="&lt;font style=&quot;font-size: 46px;&quot;&gt;X&lt;/font&gt;" style="ellipse;whiteSpace=wrap;html=1;aspect=fixed;fontSize=46;fillColor=#66B2FF;" parent="1" vertex="1">
          <mxGeometry x="-4010" y="2720" width="40" height="40" as="geometry" />
        </mxCell>
        <mxCell id="gSodDeEQz3PpbHxBmHn0-90" style="edgeStyle=none;rounded=0;orthogonalLoop=1;jettySize=auto;html=1;exitX=1;exitY=0.5;exitDx=0;exitDy=0;elbow=vertical;shape=link;" parent="1" source="gSodDeEQz3PpbHxBmHn0-91" edge="1">
          <mxGeometry relative="1" as="geometry">
            <mxPoint x="-3990" y="2894.4285714285716" as="targetPoint" />
          </mxGeometry>
        </mxCell>
        <mxCell id="gSodDeEQz3PpbHxBmHn0-91" value="&lt;font style=&quot;font-size: 46px;&quot;&gt;X&lt;/font&gt;" style="ellipse;whiteSpace=wrap;html=1;aspect=fixed;fontSize=46;fillColor=#66B2FF;" parent="1" vertex="1">
          <mxGeometry x="-4155" y="2875" width="40" height="40" as="geometry" />
        </mxCell>
        <mxCell id="gSodDeEQz3PpbHxBmHn0-92" value="" style="edgeStyle=none;shape=link;rounded=0;orthogonalLoop=1;jettySize=auto;html=1;elbow=vertical;" parent="1" source="d_horta_avinyo" target="gSodDeEQz3PpbHxBmHn0-93" edge="1">
          <mxGeometry relative="1" as="geometry">
            <mxPoint x="-4040" y="3025" as="targetPoint" />
            <mxPoint x="-3870" y="3025" as="sourcePoint" />
          </mxGeometry>
        </mxCell>
        <mxCell id="gSodDeEQz3PpbHxBmHn0-113" style="edgeStyle=orthogonalEdgeStyle;rounded=0;orthogonalLoop=1;jettySize=auto;html=1;shape=link;" parent="1" source="gSodDeEQz3PpbHxBmHn0-93" edge="1">
          <mxGeometry relative="1" as="geometry">
            <mxPoint x="-3990" y="3025" as="targetPoint" />
          </mxGeometry>
        </mxCell>
        <mxCell id="gSodDeEQz3PpbHxBmHn0-93" value="&lt;font style=&quot;font-size: 46px;&quot;&gt;X&lt;/font&gt;" style="ellipse;whiteSpace=wrap;html=1;aspect=fixed;fontSize=46;fillColor=#66B2FF;" parent="1" vertex="1">
          <mxGeometry x="-3962" y="3005" width="40" height="40" as="geometry" />
        </mxCell>
        <mxCell id="gSodDeEQz3PpbHxBmHn0-95" style="edgeStyle=none;rounded=0;orthogonalLoop=1;jettySize=auto;html=1;exitX=0.5;exitY=0;exitDx=0;exitDy=0;elbow=vertical;endArrow=none;endFill=0;startArrow=classic;startFill=1;strokeWidth=5;" parent="1" source="gSodDeEQz3PpbHxBmHn0-96" edge="1">
          <mxGeometry relative="1" as="geometry">
            <mxPoint x="-3349.857142857142" y="3710" as="targetPoint" />
          </mxGeometry>
        </mxCell>
        <mxCell id="gSodDeEQz3PpbHxBmHn0-96" value="&lt;font style=&quot;font-size: 46px;&quot;&gt;X&lt;/font&gt;" style="ellipse;whiteSpace=wrap;html=1;aspect=fixed;fontSize=46;fillColor=#66B2FF;" parent="1" vertex="1">
          <mxGeometry x="-3370" y="3810" width="40" height="40" as="geometry" />
        </mxCell>
        <mxCell id="gSodDeEQz3PpbHxBmHn0-97" value="" style="edgeStyle=none;shape=link;rounded=0;orthogonalLoop=1;jettySize=auto;html=1;elbow=vertical;" parent="1" source="d_vista_pirineu1" target="gSodDeEQz3PpbHxBmHn0-98" edge="1">
          <mxGeometry relative="1" as="geometry">
            <mxPoint x="-3110" y="3490" as="targetPoint" />
            <mxPoint x="-3050" y="3215" as="sourcePoint" />
            <Array as="points">
              <mxPoint x="-3110" y="3215" />
            </Array>
          </mxGeometry>
        </mxCell>
        <mxCell id="gSodDeEQz3PpbHxBmHn0-98" value="&lt;font style=&quot;font-size: 46px;&quot;&gt;X&lt;/font&gt;" style="ellipse;whiteSpace=wrap;html=1;aspect=fixed;fontSize=46;fillColor=#66B2FF;" parent="1" vertex="1">
          <mxGeometry x="-3130" y="3284.06" width="40" height="40" as="geometry" />
        </mxCell>
        <mxCell id="gSodDeEQz3PpbHxBmHn0-99" value="" style="edgeStyle=none;shape=link;rounded=0;orthogonalLoop=1;jettySize=auto;html=1;exitX=1;exitY=0.5;exitDx=0;exitDy=0;elbow=vertical;strokeWidth=2;entryX=0;entryY=0.5;entryDx=0;entryDy=0;" parent="1" source="gSodDeEQz3PpbHxBmHn0-64" target="gSodDeEQz3PpbHxBmHn0-101" edge="1">
          <mxGeometry relative="1" as="geometry">
            <mxPoint x="-2780" y="3490" as="sourcePoint" />
            <mxPoint x="-2450" y="3180" as="targetPoint" />
            <Array as="points">
              <mxPoint x="-2680" y="3490" />
              <mxPoint x="-2610" y="3180" />
            </Array>
          </mxGeometry>
        </mxCell>
        <mxCell id="gSodDeEQz3PpbHxBmHn0-100" style="edgeStyle=none;rounded=0;orthogonalLoop=1;jettySize=auto;html=1;elbow=vertical;shape=link;entryX=-0.007;entryY=0.851;entryDx=0;entryDy=0;entryPerimeter=0;strokeWidth=2;" parent="1" source="gSodDeEQz3PpbHxBmHn0-101" target="d_grau" edge="1">
          <mxGeometry relative="1" as="geometry" />
        </mxCell>
        <mxCell id="gSodDeEQz3PpbHxBmHn0-101" value="&lt;font style=&quot;font-size: 46px;&quot;&gt;X&lt;/font&gt;" style="ellipse;whiteSpace=wrap;html=1;aspect=fixed;fontSize=46;fillColor=#66B2FF;" parent="1" vertex="1">
          <mxGeometry x="-2445" y="3160" width="40" height="40" as="geometry" />
        </mxCell>
        <mxCell id="gSodDeEQz3PpbHxBmHn0-104" value="&lt;b&gt;&lt;font style=&quot;font-size: 25px;&quot;&gt;CL&lt;/font&gt;&lt;/b&gt;" style="ellipse;whiteSpace=wrap;html=1;aspect=fixed;fillColor=#FFFF66;" parent="1" vertex="1">
          <mxGeometry x="-6180" y="3235" width="40" height="40" as="geometry" />
        </mxCell>
        <mxCell id="gSodDeEQz3PpbHxBmHn0-105" value="&lt;font color=&quot;#3399ff&quot; style=&quot;font-size: 30px;&quot;&gt;M&lt;/font&gt;" style="rounded=0;whiteSpace=wrap;html=1;strokeWidth=7;strokeColor=#3399FF;" parent="1" vertex="1">
          <mxGeometry x="-6000" y="3204" width="42.38" height="36" as="geometry" />
        </mxCell>
        <mxCell id="gSodDeEQz3PpbHxBmHn0-106" value="&lt;font color=&quot;#3399ff&quot; style=&quot;font-size: 30px;&quot;&gt;M&lt;/font&gt;" style="rounded=0;whiteSpace=wrap;html=1;strokeWidth=7;strokeColor=#3399FF;" parent="1" vertex="1">
          <mxGeometry x="-6560" y="3318" width="42.38" height="46" as="geometry" />
        </mxCell>
        <mxCell id="gSodDeEQz3PpbHxBmHn0-107" value="&lt;font color=&quot;#3399ff&quot; style=&quot;font-size: 30px;&quot;&gt;M&lt;/font&gt;" style="rounded=0;whiteSpace=wrap;html=1;strokeWidth=7;strokeColor=#3399FF;" parent="1" vertex="1">
          <mxGeometry x="-5730" y="3127" width="42.38" height="46" as="geometry" />
        </mxCell>
        <mxCell id="gSodDeEQz3PpbHxBmHn0-108" value="&lt;font color=&quot;#3399ff&quot; style=&quot;font-size: 30px;&quot;&gt;M&lt;/font&gt;" style="rounded=0;whiteSpace=wrap;html=1;strokeWidth=7;strokeColor=#3399FF;" parent="1" vertex="1">
          <mxGeometry x="-5310" y="3144" width="40" height="36" as="geometry" />
        </mxCell>
        <mxCell id="gSodDeEQz3PpbHxBmHn0-109" value="&lt;font color=&quot;#3399ff&quot; style=&quot;font-size: 30px;&quot;&gt;M&lt;/font&gt;" style="rounded=0;whiteSpace=wrap;html=1;strokeWidth=7;strokeColor=#3399FF;" parent="1" vertex="1">
          <mxGeometry x="-4810" y="3629" width="42.38" height="46" as="geometry" />
        </mxCell>
        <mxCell id="gSodDeEQz3PpbHxBmHn0-110" value="&lt;font color=&quot;#3399ff&quot; style=&quot;font-size: 30px;&quot;&gt;M&lt;/font&gt;" style="rounded=0;whiteSpace=wrap;html=1;strokeWidth=7;strokeColor=#3399FF;" parent="1" vertex="1">
          <mxGeometry x="-4060" y="2770" width="42.38" height="46" as="geometry" />
        </mxCell>
        <mxCell id="gSodDeEQz3PpbHxBmHn0-111" value="&lt;font color=&quot;#3399ff&quot; style=&quot;font-size: 30px;&quot;&gt;M&lt;/font&gt;" style="rounded=0;whiteSpace=wrap;html=1;strokeWidth=7;strokeColor=#3399FF;" parent="1" vertex="1">
          <mxGeometry x="-4060" y="2829" width="42.38" height="46" as="geometry" />
        </mxCell>
        <mxCell id="gSodDeEQz3PpbHxBmHn0-112" value="&lt;font color=&quot;#3399ff&quot; style=&quot;font-size: 30px;&quot;&gt;M&lt;/font&gt;" style="rounded=0;whiteSpace=wrap;html=1;strokeWidth=7;strokeColor=#3399FF;" parent="1" vertex="1">
          <mxGeometry x="-3931.19" y="2944" width="42.38" height="46" as="geometry" />
        </mxCell>
        <mxCell id="gSodDeEQz3PpbHxBmHn0-114" value="&lt;font color=&quot;#3399ff&quot; style=&quot;font-size: 30px;&quot;&gt;M&lt;/font&gt;" style="rounded=0;whiteSpace=wrap;html=1;strokeWidth=7;strokeColor=#3399FF;" parent="1" vertex="1">
          <mxGeometry x="-3407.19" y="3632" width="42.38" height="46" as="geometry" />
        </mxCell>
        <mxCell id="gSodDeEQz3PpbHxBmHn0-115" value="&lt;font color=&quot;#3399ff&quot; style=&quot;font-size: 30px;&quot;&gt;M&lt;/font&gt;" style="rounded=0;whiteSpace=wrap;html=1;strokeWidth=7;strokeColor=#3399FF;" parent="1" vertex="1">
          <mxGeometry x="-2740" y="3520" width="42.38" height="40" as="geometry" />
        </mxCell>
        <mxCell id="gSodDeEQz3PpbHxBmHn0-116" value="&lt;font color=&quot;#3399ff&quot; style=&quot;font-size: 30px;&quot;&gt;M&lt;/font&gt;" style="rounded=0;whiteSpace=wrap;html=1;strokeWidth=7;strokeColor=#3399FF;" parent="1" vertex="1">
          <mxGeometry x="-3172.38" y="3340" width="42.38" height="46" as="geometry" />
        </mxCell>
        <mxCell id="gSodDeEQz3PpbHxBmHn0-117" value="&lt;font color=&quot;#3399ff&quot; style=&quot;font-size: 30px;&quot;&gt;M&lt;/font&gt;" style="rounded=0;whiteSpace=wrap;html=1;strokeWidth=7;strokeColor=#3399FF;" parent="1" vertex="1">
          <mxGeometry x="-2607.38" y="3076" width="42.38" height="46" as="geometry" />
        </mxCell>
        <mxCell id="gSodDeEQz3PpbHxBmHn0-118" value="&lt;font color=&quot;#3399ff&quot; style=&quot;font-size: 30px;&quot;&gt;M&lt;/font&gt;" style="rounded=0;whiteSpace=wrap;html=1;strokeWidth=7;strokeColor=#3399FF;" parent="1" vertex="1">
          <mxGeometry x="-2331" y="3340" width="42.38" height="46" as="geometry" />
        </mxCell>
        <mxCell id="gSodDeEQz3PpbHxBmHn0-119" value="&lt;b&gt;&lt;font style=&quot;font-size: 25px;&quot;&gt;CL&lt;/font&gt;&lt;/b&gt;" style="ellipse;whiteSpace=wrap;html=1;aspect=fixed;fillColor=#FFFF66;" parent="1" vertex="1">
          <mxGeometry x="-4818.81" y="3530" width="40" height="40" as="geometry" />
        </mxCell>
        <mxCell id="gSodDeEQz3PpbHxBmHn0-121" value="&lt;b&gt;&lt;font style=&quot;font-size: 25px;&quot;&gt;CL&lt;/font&gt;&lt;/b&gt;" style="ellipse;whiteSpace=wrap;html=1;aspect=fixed;fillColor=#FFFF66;" parent="1" vertex="1">
          <mxGeometry x="-3610" y="3650" width="40" height="40" as="geometry" />
        </mxCell>
        <mxCell id="gSodDeEQz3PpbHxBmHn0-122" value="&lt;b&gt;&lt;font style=&quot;font-size: 25px;&quot;&gt;CL&lt;/font&gt;&lt;/b&gt;" style="ellipse;whiteSpace=wrap;html=1;aspect=fixed;fillColor=#FFFF66;" parent="1" vertex="1">
          <mxGeometry x="-2810" y="3400" width="40" height="40" as="geometry" />
        </mxCell>
        <mxCell id="gSodDeEQz3PpbHxBmHn0-123" value="&lt;b&gt;&lt;font style=&quot;font-size: 25px;&quot;&gt;CL&lt;/font&gt;&lt;/b&gt;" style="ellipse;whiteSpace=wrap;html=1;aspect=fixed;fillColor=#FFFF66;" parent="1" vertex="1">
          <mxGeometry x="-2140" y="3070" width="40" height="40" as="geometry" />
        </mxCell>
        <mxCell id="gSodDeEQz3PpbHxBmHn0-130" value="&lt;font style=&quot;font-size: 50px;&quot;&gt;I&lt;/font&gt;" style="text;html=1;align=center;verticalAlign=middle;whiteSpace=wrap;rounded=0;fontColor=#3399FF;" parent="1" vertex="1">
          <mxGeometry x="-6008.81" y="3240" width="60" height="30" as="geometry" />
        </mxCell>
        <mxCell id="gSodDeEQz3PpbHxBmHn0-133" value="&lt;font style=&quot;font-size: 50px;&quot;&gt;I&lt;/font&gt;" style="text;html=1;align=center;verticalAlign=middle;whiteSpace=wrap;rounded=0;fontColor=#3399FF;rotation=-90;" parent="1" vertex="1">
          <mxGeometry x="-5360" y="3150" width="60" height="30" as="geometry" />
        </mxCell>
        <mxCell id="gSodDeEQz3PpbHxBmHn0-134" value="&lt;font style=&quot;font-size: 40px;&quot;&gt;I&lt;/font&gt;" style="text;html=1;align=center;verticalAlign=middle;whiteSpace=wrap;rounded=0;fontColor=#3399FF;fontSize=40;" parent="1" vertex="1">
          <mxGeometry x="-4818.8099999999995" y="3599" width="60" height="30" as="geometry" />
        </mxCell>
        <mxCell id="gSodDeEQz3PpbHxBmHn0-135" value="&lt;font style=&quot;font-size: 50px;&quot;&gt;I&lt;/font&gt;" style="text;html=1;align=center;verticalAlign=middle;whiteSpace=wrap;rounded=0;fontColor=#3399FF;" parent="1" vertex="1">
          <mxGeometry x="-3420" y="3680" width="60" height="30" as="geometry" />
        </mxCell>
        <mxCell id="gSodDeEQz3PpbHxBmHn0-136" value="&lt;font style=&quot;font-size: 50px;&quot;&gt;I&lt;/font&gt;" style="text;html=1;align=center;verticalAlign=middle;whiteSpace=wrap;rounded=0;fontColor=#3399FF;" parent="1" vertex="1">
          <mxGeometry x="-3940" y="2980" width="60" height="50" as="geometry" />
        </mxCell>
        <mxCell id="gSodDeEQz3PpbHxBmHn0-138" value="&lt;font style=&quot;font-size: 30px;&quot;&gt;I&lt;/font&gt;" style="text;html=1;align=center;verticalAlign=middle;whiteSpace=wrap;rounded=0;fontColor=#3399FF;strokeWidth=4;" parent="1" vertex="1">
          <mxGeometry x="-4068.81" y="2860" width="60" height="50" as="geometry" />
        </mxCell>
        <mxCell id="gSodDeEQz3PpbHxBmHn0-140" value="&lt;font style=&quot;font-size: 40px;&quot;&gt;I&lt;/font&gt;" style="text;html=1;align=center;verticalAlign=middle;whiteSpace=wrap;rounded=0;fontColor=#3399FF;rotation=-90;" parent="1" vertex="1">
          <mxGeometry x="-4030" y="2770" width="60" height="50" as="geometry" />
        </mxCell>
        <mxCell id="GH2AgFXG34YJStF--hEa-5" value="&lt;font size=&quot;1&quot; style=&quot;&quot;&gt;&lt;b style=&quot;font-size: 25px;&quot;&gt;Captació i Bombament Aigua Crua&lt;/b&gt;&lt;/font&gt;" style="text;html=1;align=center;verticalAlign=middle;whiteSpace=wrap;rounded=0;" parent="1" vertex="1">
          <mxGeometry x="-5280" y="3275" width="170" height="30" as="geometry" />
        </mxCell>
        <mxCell id="GH2AgFXG34YJStF--hEa-12" value="&lt;font style=&quot;font-size: 50px;&quot;&gt;I&lt;/font&gt;" style="text;html=1;align=center;verticalAlign=middle;whiteSpace=wrap;rounded=0;fontColor=#3399FF;" parent="1" vertex="1">
          <mxGeometry x="-5738.81" y="3140" width="60" height="110" as="geometry" />
        </mxCell>
        <mxCell id="GH2AgFXG34YJStF--hEa-14" value="&lt;font style=&quot;font-size: 25px;&quot;&gt;Bombament Cabrianes&lt;/font&gt;" style="text;html=1;align=center;verticalAlign=middle;whiteSpace=wrap;rounded=0;fontStyle=1" parent="1" vertex="1">
          <mxGeometry x="-4330" y="3500" width="170" height="30" as="geometry" />
        </mxCell>
        <mxCell id="GH2AgFXG34YJStF--hEa-19" value="&lt;font size=&quot;1&quot; style=&quot;&quot;&gt;&lt;b style=&quot;font-size: 25px;&quot;&gt;Dipòsits Vista Pirineu&lt;/b&gt;&lt;/font&gt;" style="text;html=1;align=center;verticalAlign=middle;whiteSpace=wrap;rounded=0;" parent="1" vertex="1">
          <mxGeometry x="-3100" y="3070" width="180" height="60" as="geometry" />
        </mxCell>
        <mxCell id="GH2AgFXG34YJStF--hEa-23" value="" style="endArrow=none;html=1;rounded=0;dashed=1;strokeWidth=4;endFill=0;" parent="1" target="d_grau_elevat" edge="1">
          <mxGeometry width="50" height="50" relative="1" as="geometry">
            <mxPoint x="-2025" y="2760" as="sourcePoint" />
            <mxPoint x="-2515" y="2770" as="targetPoint" />
            <Array as="points">
              <mxPoint x="-2515" y="2760" />
            </Array>
          </mxGeometry>
        </mxCell>
        <mxCell id="GH2AgFXG34YJStF--hEa-30" value="" style="endArrow=classic;html=1;rounded=0;" parent="1" edge="1">
          <mxGeometry width="50" height="50" relative="1" as="geometry">
            <mxPoint x="-2255" y="3960" as="sourcePoint" />
            <mxPoint x="-2485" y="3960" as="targetPoint" />
          </mxGeometry>
        </mxCell>
        <mxCell id="GH2AgFXG34YJStF--hEa-32" value="" style="endArrow=classic;html=1;rounded=0;" parent="1" edge="1">
          <mxGeometry width="50" height="50" relative="1" as="geometry">
            <mxPoint x="-2254" y="3840" as="sourcePoint" />
            <mxPoint x="-2484" y="3840" as="targetPoint" />
          </mxGeometry>
        </mxCell>
        <mxCell id="GH2AgFXG34YJStF--hEa-34" value="" style="endArrow=classic;html=1;rounded=0;" parent="1" edge="1">
          <mxGeometry width="50" height="50" relative="1" as="geometry">
            <mxPoint x="-2340" y="3840" as="sourcePoint" />
            <mxPoint x="-2510" y="3700" as="targetPoint" />
            <Array as="points">
              <mxPoint x="-2340" y="3700" />
            </Array>
          </mxGeometry>
        </mxCell>
        <mxCell id="GH2AgFXG34YJStF--hEa-33" value="&lt;font style=&quot;font-size: 46px;&quot;&gt;X&lt;/font&gt;" style="ellipse;whiteSpace=wrap;html=1;aspect=fixed;fontSize=46;fillColor=#66B2FF;" parent="1" vertex="1">
          <mxGeometry x="-2415" y="3678" width="40" height="40" as="geometry" />
        </mxCell>
        <mxCell id="GH2AgFXG34YJStF--hEa-36" value="&lt;font size=&quot;1&quot; color=&quot;#00cc00&quot;&gt;&lt;b style=&quot;font-size: 25px;&quot;&gt;Xarxa Vista Pirineu&lt;/b&gt;&lt;/font&gt;" style="text;html=1;align=center;verticalAlign=middle;whiteSpace=wrap;rounded=0;" parent="1" vertex="1">
          <mxGeometry x="-2642.62" y="3685" width="110" height="30" as="geometry" />
        </mxCell>
        <mxCell id="GH2AgFXG34YJStF--hEa-37" value="&lt;font size=&quot;1&quot; color=&quot;#00cc00&quot; style=&quot;&quot;&gt;&lt;b style=&quot;font-size: 25px;&quot;&gt;Xarxa Normal La Guàrdia&lt;/b&gt;&lt;/font&gt;" style="text;html=1;align=center;verticalAlign=middle;whiteSpace=wrap;rounded=0;" parent="1" vertex="1">
          <mxGeometry x="-2732.5" y="3830" width="234.76" height="30" as="geometry" />
        </mxCell>
        <mxCell id="GH2AgFXG34YJStF--hEa-38" value="&lt;font size=&quot;1&quot; color=&quot;#00cc00&quot; style=&quot;&quot;&gt;&lt;b style=&quot;font-size: 25px;&quot;&gt;Xarxa les Quingles&lt;/b&gt;&lt;/font&gt;" style="text;html=1;align=center;verticalAlign=middle;whiteSpace=wrap;rounded=0;" parent="1" vertex="1">
          <mxGeometry x="-2677.5" y="3940" width="179.76" height="30" as="geometry" />
        </mxCell>
        <mxCell id="GH2AgFXG34YJStF--hEa-39" value="" style="endArrow=none;html=1;rounded=0;dashed=1;strokeWidth=7;strokeColor=#000000;fillColor=#f5f5f5;shadow=0;" parent="1" edge="1">
          <mxGeometry width="50" height="50" relative="1" as="geometry">
            <mxPoint x="-3410" y="2880" as="sourcePoint" />
            <mxPoint x="-3410" y="2880" as="targetPoint" />
            <Array as="points">
              <mxPoint x="-3520" y="3240" />
              <mxPoint x="-3800" y="3240" />
              <mxPoint x="-3800" y="3570" />
              <mxPoint x="-3450" y="3570" />
              <mxPoint x="-3360" y="3280" />
              <mxPoint x="-2750" y="3280" />
              <mxPoint x="-2750" y="2880" />
            </Array>
          </mxGeometry>
        </mxCell>
        <mxCell id="GH2AgFXG34YJStF--hEa-42" value="&lt;font size=&quot;1&quot; style=&quot;&quot;&gt;&lt;b style=&quot;font-size: 30px;&quot;&gt;Sorea (Artés)&lt;/b&gt;&lt;/font&gt;" style="text;html=1;align=center;verticalAlign=middle;whiteSpace=wrap;rounded=0;" parent="1" vertex="1">
          <mxGeometry x="-2990" y="2830" width="236.88" height="30" as="geometry" />
        </mxCell>
        <mxCell id="GH2AgFXG34YJStF--hEa-44" value="" style="endArrow=none;dashed=1;html=1;strokeWidth=7;rounded=0;" parent="1" edge="1">
          <mxGeometry width="50" height="50" relative="1" as="geometry">
            <mxPoint x="-4460" y="2520" as="sourcePoint" />
            <mxPoint x="-4450" y="2520" as="targetPoint" />
            <Array as="points">
              <mxPoint x="-4460" y="3000" />
              <mxPoint x="-4200" y="3000" />
              <mxPoint x="-4200" y="2700" />
              <mxPoint x="-3850" y="2700" />
              <mxPoint x="-3850" y="3120" />
              <mxPoint x="-3600" y="3120" />
              <mxPoint x="-3600" y="2520" />
            </Array>
          </mxGeometry>
        </mxCell>
        <mxCell id="GH2AgFXG34YJStF--hEa-45" value="&lt;b style=&quot;forced-color-adjust: none; color: rgb(0, 0, 0); font-family: Helvetica; font-style: normal; font-variant-ligatures: normal; font-variant-caps: normal; letter-spacing: normal; orphans: 2; text-align: center; text-indent: 0px; text-transform: none; widows: 2; word-spacing: 0px; -webkit-text-stroke-width: 0px; white-space: normal; background-color: rgb(251, 251, 251); text-decoration-thickness: initial; text-decoration-style: initial; text-decoration-color: initial;&quot;&gt;&lt;font style=&quot;font-size: 30px;&quot;&gt;Sorea (Avinyó)&lt;/font&gt;&lt;/b&gt;" style="text;whiteSpace=wrap;html=1;" parent="1" vertex="1">
          <mxGeometry x="-3860" y="2470" width="270" height="50" as="geometry" />
        </mxCell>
        <mxCell id="GH2AgFXG34YJStF--hEa-46" value="" style="endArrow=none;dashed=1;html=1;rounded=0;strokeWidth=7;" parent="1" edge="1">
          <mxGeometry width="50" height="50" relative="1" as="geometry">
            <mxPoint x="-6480" y="2560" as="sourcePoint" />
            <mxPoint x="-6480" y="2800" as="targetPoint" />
            <Array as="points">
              <mxPoint x="-6080" y="2560" />
              <mxPoint x="-6080" y="2800" />
            </Array>
          </mxGeometry>
        </mxCell>
        <mxCell id="GH2AgFXG34YJStF--hEa-51" value="&lt;b style=&quot;forced-color-adjust: none; color: rgb(0, 0, 0); font-family: Helvetica; font-style: normal; font-variant-ligatures: normal; font-variant-caps: normal; letter-spacing: normal; orphans: 2; text-align: center; text-indent: 0px; text-transform: none; widows: 2; word-spacing: 0px; -webkit-text-stroke-width: 0px; white-space: normal; background-color: rgb(251, 251, 251); text-decoration-thickness: initial; text-decoration-style: initial; text-decoration-color: initial;&quot;&gt;&lt;font style=&quot;font-size: 30px;&quot;&gt;Sorea (Sallent)&lt;/font&gt;&lt;/b&gt;" style="text;whiteSpace=wrap;html=1;" parent="1" vertex="1">
          <mxGeometry x="-6340" y="2500" width="260" height="50" as="geometry" />
        </mxCell>
        <mxCell id="GH2AgFXG34YJStF--hEa-52" value="" style="endArrow=none;html=1;rounded=0;exitX=1;exitY=0.5;exitDx=0;exitDy=0;strokeWidth=6;strokeColor=#3399FF;" parent="1" source="gSodDeEQz3PpbHxBmHn0-106" edge="1">
          <mxGeometry width="50" height="50" relative="1" as="geometry">
            <mxPoint x="-5880" y="2850" as="sourcePoint" />
            <mxPoint x="-6480" y="3340" as="targetPoint" />
          </mxGeometry>
        </mxCell>
        <mxCell id="GH2AgFXG34YJStF--hEa-53" value="" style="endArrow=none;html=1;rounded=0;exitX=1;exitY=0.5;exitDx=0;exitDy=0;strokeWidth=4;strokeColor=#3399FF;" parent="1" source="gSodDeEQz3PpbHxBmHn0-116" edge="1">
          <mxGeometry width="50" height="50" relative="1" as="geometry">
            <mxPoint x="-3400" y="3590" as="sourcePoint" />
            <mxPoint x="-3110" y="3363" as="targetPoint" />
          </mxGeometry>
        </mxCell>
        <mxCell id="GH2AgFXG34YJStF--hEa-54" value="" style="endArrow=none;html=1;rounded=0;exitX=0.5;exitY=0;exitDx=0;exitDy=0;strokeWidth=4;strokeColor=#3399FF;" parent="1" source="gSodDeEQz3PpbHxBmHn0-115" edge="1">
          <mxGeometry width="50" height="50" relative="1" as="geometry">
            <mxPoint x="-2850" y="3490" as="sourcePoint" />
            <mxPoint x="-2719" y="3490" as="targetPoint" />
          </mxGeometry>
        </mxCell>
        <mxCell id="GH2AgFXG34YJStF--hEa-55" value="" style="endArrow=none;html=1;rounded=0;exitX=0.5;exitY=0;exitDx=0;exitDy=0;strokeWidth=5;strokeColor=#3399FF;" parent="1" source="gSodDeEQz3PpbHxBmHn0-117" edge="1">
          <mxGeometry width="50" height="50" relative="1" as="geometry">
            <mxPoint x="-2785" y="3254" as="sourcePoint" />
            <mxPoint x="-2586" y="3044" as="targetPoint" />
          </mxGeometry>
        </mxCell>
        <mxCell id="GH2AgFXG34YJStF--hEa-56" value="" style="endArrow=none;html=1;rounded=0;exitX=1;exitY=0.5;exitDx=0;exitDy=0;strokeWidth=5;strokeColor=#3399FF;" parent="1" source="gSodDeEQz3PpbHxBmHn0-118" edge="1">
          <mxGeometry width="50" height="50" relative="1" as="geometry">
            <mxPoint x="-2691" y="3190" as="sourcePoint" />
            <mxPoint x="-2261" y="3363" as="targetPoint" />
          </mxGeometry>
        </mxCell>
        <mxCell id="GH2AgFXG34YJStF--hEa-57" value="" style="endArrow=none;html=1;rounded=0;startArrow=block;startFill=1;endFill=0;dashed=1;strokeWidth=6;jumpStyle=arc;" parent="1" edge="1">
          <mxGeometry width="50" height="50" relative="1" as="geometry">
            <mxPoint x="-6480" y="3400" as="sourcePoint" />
            <mxPoint x="-6160" y="3280" as="targetPoint" />
            <Array as="points">
              <mxPoint x="-6160" y="3400" />
            </Array>
          </mxGeometry>
        </mxCell>
        <mxCell id="GH2AgFXG34YJStF--hEa-60" value="&lt;font size=&quot;1&quot; style=&quot;&quot;&gt;&lt;b style=&quot;font-size: 25px;&quot;&gt;Dipòsit i Bombament la Paloma&lt;/b&gt;&lt;/font&gt;" style="text;html=1;align=center;verticalAlign=middle;whiteSpace=wrap;rounded=0;" parent="1" vertex="1">
          <mxGeometry x="-3407.19" y="3545" width="180" height="60" as="geometry" />
        </mxCell>
        <mxCell id="ZxImg-H6W7zN_j0aoQGk-1" value="&lt;font color=&quot;#00cc00&quot;&gt;&lt;span style=&quot;font-size: 25px;&quot;&gt;&lt;b&gt;A l&#39;Oller&lt;/b&gt;&lt;/span&gt;&lt;/font&gt;" style="text;html=1;align=center;verticalAlign=middle;whiteSpace=wrap;rounded=0;" parent="1" vertex="1">
          <mxGeometry x="-2370" y="4077" width="230" height="30" as="geometry" />
        </mxCell>
        <mxCell id="ZxImg-H6W7zN_j0aoQGk-2" value="" style="endArrow=classic;html=1;rounded=0;strokeWidth=2;" parent="1" edge="1">
          <mxGeometry width="50" height="50" relative="1" as="geometry">
            <mxPoint x="-2515" y="3040" as="sourcePoint" />
            <mxPoint x="-2625" y="3040" as="targetPoint" />
          </mxGeometry>
        </mxCell>
        <mxCell id="ZxImg-H6W7zN_j0aoQGk-4" value="&lt;font size=&quot;1&quot; color=&quot;#00cc00&quot; style=&quot;&quot;&gt;&lt;b style=&quot;font-size: 22px;&quot;&gt;Xarxa la Guàrdia&lt;/b&gt;&lt;/font&gt;" style="text;html=1;align=center;verticalAlign=middle;whiteSpace=wrap;rounded=0;" parent="1" vertex="1">
          <mxGeometry x="-2732.5" y="3000" width="234.76" height="30" as="geometry" />
        </mxCell>
        <mxCell id="ZxImg-H6W7zN_j0aoQGk-8" value="" style="endArrow=none;html=1;rounded=0;shape=link;strokeWidth=2;" parent="1" edge="1">
          <mxGeometry width="50" height="50" relative="1" as="geometry">
            <mxPoint x="-2210" y="3156" as="sourcePoint" />
            <mxPoint x="-1840" y="3156" as="targetPoint" />
          </mxGeometry>
        </mxCell>
        <mxCell id="ZxImg-H6W7zN_j0aoQGk-10" value="&lt;font color=&quot;#ff00ff&quot; style=&quot;font-size: 25px;&quot;&gt;&lt;b style=&quot;font-size: 25px;&quot;&gt;Esporàdic&lt;/b&gt;&lt;/font&gt;" style="text;html=1;align=center;verticalAlign=middle;whiteSpace=wrap;rounded=0;strokeWidth=8;fontSize=25;" parent="1" vertex="1">
          <mxGeometry x="-2125" y="2770" width="60" height="30" as="geometry" />
        </mxCell>
        <mxCell id="ZxImg-H6W7zN_j0aoQGk-11" value="" style="endArrow=classic;html=1;rounded=0;dashed=1;strokeWidth=4;" parent="1" edge="1">
          <mxGeometry width="50" height="50" relative="1" as="geometry">
            <mxPoint x="-2030" y="2760" as="sourcePoint" />
            <mxPoint x="-2300" y="2760" as="targetPoint" />
          </mxGeometry>
        </mxCell>
        <mxCell id="ZxImg-H6W7zN_j0aoQGk-12" value="&lt;font color=&quot;#ff00ff&quot; style=&quot;font-size: 25px;&quot;&gt;&lt;b style=&quot;font-size: 25px;&quot;&gt;Esporàdic&lt;/b&gt;&lt;/font&gt;" style="text;html=1;align=center;verticalAlign=middle;whiteSpace=wrap;rounded=0;strokeWidth=8;fontSize=25;" parent="1" vertex="1">
          <mxGeometry x="-2385" y="3550" width="60" height="30" as="geometry" />
        </mxCell>
        <mxCell id="ZxImg-H6W7zN_j0aoQGk-13" value="&lt;font style=&quot;font-size: 20px;&quot;&gt;CS 338.00&lt;/font&gt;" style="text;html=1;align=center;verticalAlign=middle;whiteSpace=wrap;rounded=0;" parent="1" vertex="1">
          <mxGeometry x="-6400" y="2770" width="120" height="30" as="geometry" />
        </mxCell>
        <mxCell id="ZxImg-H6W7zN_j0aoQGk-14" value="&lt;span style=&quot;color: rgb(0, 0, 0); font-family: Helvetica; font-size: 20px; font-style: normal; font-variant-ligatures: normal; font-variant-caps: normal; font-weight: 400; letter-spacing: normal; orphans: 2; text-align: center; text-indent: 0px; text-transform: none; widows: 2; word-spacing: 0px; -webkit-text-stroke-width: 0px; white-space: normal; background-color: rgb(251, 251, 251); text-decoration-thickness: initial; text-decoration-style: initial; text-decoration-color: initial; display: inline !important; float: none;&quot;&gt;CS 341.50&lt;/span&gt;" style="text;whiteSpace=wrap;html=1;" parent="1" vertex="1">
          <mxGeometry x="-6390" y="3314" width="130" height="50" as="geometry" />
        </mxCell>
        <mxCell id="ZxImg-H6W7zN_j0aoQGk-15" value="&lt;span style=&quot;color: rgb(0, 0, 0); font-family: Helvetica; font-size: 20px; font-style: normal; font-variant-ligatures: normal; font-variant-caps: normal; font-weight: 400; letter-spacing: normal; orphans: 2; text-align: center; text-indent: 0px; text-transform: none; widows: 2; word-spacing: 0px; -webkit-text-stroke-width: 0px; white-space: normal; background-color: rgb(251, 251, 251); text-decoration-thickness: initial; text-decoration-style: initial; text-decoration-color: initial; display: inline !important; float: none;&quot;&gt;CS 349.65&lt;/span&gt;" style="text;whiteSpace=wrap;html=1;" parent="1" vertex="1">
          <mxGeometry x="-5560" y="3180" width="130" height="50" as="geometry" />
        </mxCell>
        <mxCell id="ZxImg-H6W7zN_j0aoQGk-16" value="&lt;span style=&quot;color: rgb(0, 0, 0); font-family: Helvetica; font-size: 20px; font-style: normal; font-variant-ligatures: normal; font-variant-caps: normal; font-weight: 400; letter-spacing: normal; orphans: 2; text-align: center; text-indent: 0px; text-transform: none; widows: 2; word-spacing: 0px; -webkit-text-stroke-width: 0px; white-space: normal; background-color: rgb(251, 251, 251); text-decoration-thickness: initial; text-decoration-style: initial; text-decoration-color: initial; display: inline !important; float: none;&quot;&gt;CB 295.65&lt;/span&gt;" style="text;whiteSpace=wrap;html=1;" parent="1" vertex="1">
          <mxGeometry x="-5260" y="3440" width="130" height="50" as="geometry" />
        </mxCell>
        <mxCell id="ZxImg-H6W7zN_j0aoQGk-17" value="&lt;span style=&quot;color: rgb(0, 0, 0); font-family: Helvetica; font-size: 20px; font-style: normal; font-variant-ligatures: normal; font-variant-caps: normal; font-weight: 400; letter-spacing: normal; orphans: 2; text-align: center; text-indent: 0px; text-transform: none; widows: 2; word-spacing: 0px; -webkit-text-stroke-width: 0px; white-space: normal; background-color: rgb(251, 251, 251); text-decoration-thickness: initial; text-decoration-style: initial; text-decoration-color: initial; display: inline !important; float: none;&quot;&gt;CS 314.49&lt;/span&gt;" style="text;whiteSpace=wrap;html=1;" parent="1" vertex="1">
          <mxGeometry x="-4962" y="3620" width="130" height="50" as="geometry" />
        </mxCell>
        <mxCell id="ZxImg-H6W7zN_j0aoQGk-18" value="&lt;span style=&quot;color: rgb(0, 0, 0); font-family: Helvetica; font-size: 20px; font-style: normal; font-variant-ligatures: normal; font-variant-caps: normal; font-weight: 400; letter-spacing: normal; orphans: 2; text-align: center; text-indent: 0px; text-transform: none; widows: 2; word-spacing: 0px; -webkit-text-stroke-width: 0px; white-space: normal; background-color: rgb(251, 251, 251); text-decoration-thickness: initial; text-decoration-style: initial; text-decoration-color: initial; display: inline !important; float: none;&quot;&gt;CB 266.34&lt;/span&gt;" style="text;whiteSpace=wrap;html=1;" parent="1" vertex="1">
          <mxGeometry x="-4300" y="3790" width="130" height="50" as="geometry" />
        </mxCell>
        <mxCell id="ZxImg-H6W7zN_j0aoQGk-19" value="&lt;span style=&quot;color: rgb(0, 0, 0); font-family: Helvetica; font-size: 20px; font-style: normal; font-variant-ligatures: normal; font-variant-caps: normal; font-weight: 400; letter-spacing: normal; orphans: 2; text-align: center; text-indent: 0px; text-transform: none; widows: 2; word-spacing: 0px; -webkit-text-stroke-width: 0px; white-space: normal; background-color: rgb(251, 251, 251); text-decoration-thickness: initial; text-decoration-style: initial; text-decoration-color: initial; display: inline !important; float: none;&quot;&gt;CS 356.50&lt;/span&gt;" style="text;whiteSpace=wrap;html=1;" parent="1" vertex="1">
          <mxGeometry x="-4390" y="2940" width="130" height="50" as="geometry" />
        </mxCell>
        <mxCell id="ZxImg-H6W7zN_j0aoQGk-20" value="&lt;span style=&quot;color: rgb(0, 0, 0); font-family: Helvetica; font-size: 20px; font-style: normal; font-variant-ligatures: normal; font-variant-caps: normal; font-weight: 400; letter-spacing: normal; orphans: 2; text-align: center; text-indent: 0px; text-transform: none; widows: 2; word-spacing: 0px; -webkit-text-stroke-width: 0px; white-space: normal; background-color: rgb(251, 251, 251); text-decoration-thickness: initial; text-decoration-style: initial; text-decoration-color: initial; display: inline !important; float: none;&quot;&gt;CS 395.44&lt;/span&gt;" style="text;whiteSpace=wrap;html=1;" parent="1" vertex="1">
          <mxGeometry x="-3955" y="2670" width="130" height="50" as="geometry" />
        </mxCell>
        <mxCell id="ZxImg-H6W7zN_j0aoQGk-24" value="&lt;span style=&quot;color: rgb(0, 0, 0); font-family: Helvetica; font-size: 20px; font-style: normal; font-variant-ligatures: normal; font-variant-caps: normal; font-weight: 400; letter-spacing: normal; orphans: 2; text-align: center; text-indent: 0px; text-transform: none; widows: 2; word-spacing: 0px; -webkit-text-stroke-width: 0px; white-space: normal; background-color: rgb(251, 251, 251); text-decoration-thickness: initial; text-decoration-style: initial; text-decoration-color: initial; display: inline !important; float: none;&quot;&gt;CS 339.00&lt;/span&gt;" style="text;whiteSpace=wrap;html=1;" parent="1" vertex="1">
          <mxGeometry x="-3760" y="3060" width="130" height="50" as="geometry" />
        </mxCell>
        <mxCell id="ZxImg-H6W7zN_j0aoQGk-26" value="&lt;span style=&quot;color: rgb(0, 0, 0); font-family: Helvetica; font-size: 20px; font-style: normal; font-variant-ligatures: normal; font-variant-caps: normal; font-weight: 400; letter-spacing: normal; orphans: 2; text-align: center; text-indent: 0px; text-transform: none; widows: 2; word-spacing: 0px; -webkit-text-stroke-width: 0px; white-space: normal; background-color: rgb(251, 251, 251); text-decoration-thickness: initial; text-decoration-style: initial; text-decoration-color: initial; display: inline !important; float: none;&quot;&gt;CS 349.00&lt;/span&gt;" style="text;whiteSpace=wrap;html=1;" parent="1" vertex="1">
          <mxGeometry x="-3640" y="3435" width="130" height="50" as="geometry" />
        </mxCell>
        <mxCell id="ZxImg-H6W7zN_j0aoQGk-27" value="&lt;span style=&quot;color: rgb(0, 0, 0); font-family: Helvetica; font-size: 20px; font-style: normal; font-variant-ligatures: normal; font-variant-caps: normal; font-weight: 400; letter-spacing: normal; orphans: 2; text-align: center; text-indent: 0px; text-transform: none; widows: 2; word-spacing: 0px; -webkit-text-stroke-width: 0px; white-space: normal; background-color: rgb(251, 251, 251); text-decoration-thickness: initial; text-decoration-style: initial; text-decoration-color: initial; display: inline !important; float: none;&quot;&gt;CS 376.07&lt;/span&gt;" style="text;whiteSpace=wrap;html=1;" parent="1" vertex="1">
          <mxGeometry x="-3550" y="3760" width="130" height="50" as="geometry" />
        </mxCell>
        <mxCell id="ZxImg-H6W7zN_j0aoQGk-28" value="&lt;span style=&quot;color: rgb(0, 0, 0); font-family: Helvetica; font-size: 20px; font-style: normal; font-variant-ligatures: normal; font-variant-caps: normal; font-weight: 400; letter-spacing: normal; orphans: 2; text-align: center; text-indent: 0px; text-transform: none; widows: 2; word-spacing: 0px; -webkit-text-stroke-width: 0px; white-space: normal; background-color: rgb(251, 251, 251); text-decoration-thickness: initial; text-decoration-style: initial; text-decoration-color: initial; display: inline !important; float: none;&quot;&gt;CS 490.48&lt;/span&gt;" style="text;whiteSpace=wrap;html=1;" parent="1" vertex="1">
          <mxGeometry x="-3005" y="3540" width="130" height="50" as="geometry" />
        </mxCell>
        <mxCell id="ZxImg-H6W7zN_j0aoQGk-29" value="&lt;span style=&quot;color: rgb(0, 0, 0); font-family: Helvetica; font-size: 20px; font-style: normal; font-variant-ligatures: normal; font-variant-caps: normal; font-weight: 400; letter-spacing: normal; orphans: 2; text-align: center; text-indent: 0px; text-transform: none; widows: 2; word-spacing: 0px; -webkit-text-stroke-width: 0px; white-space: normal; background-color: rgb(251, 251, 251); text-decoration-thickness: initial; text-decoration-style: initial; text-decoration-color: initial; display: inline !important; float: none;&quot;&gt;CS 569.45&lt;/span&gt;" style="text;whiteSpace=wrap;html=1;" parent="1" vertex="1">
          <mxGeometry x="-2627.74" y="2910" width="130" height="50" as="geometry" />
        </mxCell>
        <mxCell id="ZxImg-H6W7zN_j0aoQGk-30" value="&lt;span style=&quot;color: rgb(0, 0, 0); font-family: Helvetica; font-size: 20px; font-style: normal; font-variant-ligatures: normal; font-variant-caps: normal; font-weight: 400; letter-spacing: normal; orphans: 2; text-align: center; text-indent: 0px; text-transform: none; widows: 2; word-spacing: 0px; -webkit-text-stroke-width: 0px; white-space: normal; background-color: rgb(251, 251, 251); text-decoration-thickness: initial; text-decoration-style: initial; text-decoration-color: initial; display: inline !important; float: none;&quot;&gt;CS 564.00&lt;/span&gt;" style="text;whiteSpace=wrap;html=1;" parent="1" vertex="1">
          <mxGeometry x="-2385" y="3299" width="130" height="50" as="geometry" />
        </mxCell>
        <object label="." id="d_vista_pirineu2">
          <mxCell style="shape=mxgraph.pid.vessels.tank,_vessel;html=1;pointerEvents=1;align=center;verticalLabelPosition=top;verticalAlign=bottom;dashed=0;strokeWidth=5;fontSize=30;labelPosition=center;" parent="1" vertex="1">
            <mxGeometry x="-2890" y="2975" width="50" height="70" as="geometry" />
          </mxCell>
        </object>
        <object label="&lt;font style=&quot;font-size: 26px;&quot;&gt;!&lt;/font&gt;" id="a_etap_bagesllobregat_1">
          <mxCell style="verticalLabelPosition=middle;verticalAlign=top;html=1;shape=mxgraph.basic.acute_triangle;dx=0.5;strokeWidth=5;horizontal=1;labelPosition=center;align=center;fontSize=26;fontStyle=1;fontColor=#FF0000;strokeColor=#FFFFFF;" vertex="1" parent="1">
            <mxGeometry x="-6390" y="3230" width="50" height="38.43" as="geometry" />
          </mxCell>
        </object>
        <object label="&lt;font style=&quot;font-size: 26px;&quot;&gt;!&lt;/font&gt;" id="a_sallent">
          <mxCell style="verticalLabelPosition=middle;verticalAlign=top;html=1;shape=mxgraph.basic.acute_triangle;dx=0.5;strokeWidth=5;horizontal=1;labelPosition=center;align=center;fontSize=26;fontStyle=1;fontColor=#FF0000;strokeColor=#FFFFFF;" vertex="1" parent="1">
            <mxGeometry x="-6390" y="2710" width="50" height="38.43" as="geometry" />
          </mxCell>
        </object>
        <object label="&lt;font style=&quot;font-size: 26px;&quot;&gt;!&lt;/font&gt;" id="a_etap_bagesllobregat_2">
          <mxCell style="verticalLabelPosition=middle;verticalAlign=top;html=1;shape=mxgraph.basic.acute_triangle;dx=0.5;strokeWidth=5;horizontal=1;labelPosition=center;align=center;fontSize=26;fontStyle=1;fontColor=#FF0000;strokeColor=#FFFFFF;" vertex="1" parent="1">
            <mxGeometry x="-6105" y="3318" width="50" height="38.43" as="geometry" />
          </mxCell>
        </object>
      </root>
    </mxGraphModel>
  </diagram>
</mxfile>
